# xmcd CD database file
#
# Track frame offsets:
#	150
#	26715
#	50785
#	72555
#	90767
#	110960
#	128650
#	158727
#	175725
#	195317
#
# Disc length: 2992 seconds
#
# Revision: 0
# Processed by: cddbd v1.5.1PL0 Copyright (c) Steve Scherf et al.
# Submitted via: CDex 1.60beta1
#
DISCID=830bae0a
DTITLE=George Benson - Revue Collection
DYEAR=1997
DGENRE=Jazz
TTITLE0=Love for Sale
TTITLE1=The Masquerade Is Over
TTITLE2=Witchcraft
TTITLE3=There Will Never Be Another You
TTITLE4=All the Blues
TTITLE5=All the Things You Are
TTITLE6=Love Walked In
TTITLE7=Lil' Darlin'
TTITLE8=Oleo
TTITLE9=Invitation
EXTD=YEAR: 1997
EXTT0=
EXTT1=
EXTT2=
EXTT3=
EXTT4=
EXTT5=
EXTT6=
EXTT7=
EXTT8=
EXTT9=
PLAYORDER=
